<svg xmlns="http://www.w3.org/2000/svg" xmlns:xlink="http://www.w3.org/1999/xlink" width="1080" zoomAndPan="magnify" viewBox="0 0 810 1439.999935" height="1920" preserveAspectRatio="xMidYMid meet" version="1.0"><defs><g/><clipPath id="307562881a"><path d="M 243 520.566406 L 567 520.566406 L 567 736 L 243 736 Z M 243 520.566406 " clip-rule="nonzero"/></clipPath><clipPath id="00f36a7ab9"><path d="M 398 760 L 411 760 L 411 807.816406 L 398 807.816406 Z M 398 760 " clip-rule="nonzero"/></clipPath></defs><g clip-path="url(#307562881a)"><path fill="#000000" d="M 243 520.738281 C 244.25 525.519531 245.238281 530.378906 246.789062 535.058594 C 249.839844 544.269531 252.683594 553.597656 256.570312 562.460938 C 260.578125 571.605469 267.738281 578.152344 276.519531 583.125 C 308.410156 601.179688 340.183594 619.449219 371.992188 637.640625 C 372.921875 638.175781 373.816406 638.773438 374.601562 639.5625 C 336.601562 622.269531 299.628906 603.042969 263.382812 580.761719 C 263.890625 582.105469 264.050781 582.808594 264.390625 583.417969 C 270.183594 593.863281 276.082031 604.246094 281.800781 614.738281 C 287.042969 624.351562 295.457031 628.46875 305.925781 630.054688 C 323.476562 632.710938 340.945312 635.882812 358.453125 638.855469 C 363.949219 639.789062 369.4375 640.765625 374.902344 641.933594 C 347.492188 640.792969 320.355469 637.308594 293.015625 633.3125 C 294.578125 634.613281 296.160156 635.898438 297.707031 637.21875 C 304.203125 642.757812 310.875 648.109375 317.125 653.921875 C 322.128906 658.570312 327.292969 659.40625 333.691406 657.230469 C 346.96875 652.714844 360.40625 648.648438 373.777344 644.398438 C 374.21875 644.257812 374.675781 644.175781 375.199219 644.304688 C 370.210938 646.636719 365.160156 648.851562 360.242188 651.320312 C 353.273438 654.824219 347.058594 659.417969 341.78125 665.175781 C 336.335938 671.117188 335.503906 677.617188 340.082031 684.128906 C 346.246094 692.894531 352.949219 701.296875 359.777344 709.800781 C 353.757812 684.339844 359.523438 662.390625 378.855469 644.402344 C 378.339844 645.359375 377.835938 646.332031 377.308594 647.292969 C 371.183594 658.519531 365.886719 670.066406 364.085938 682.90625 C 362.800781 692.011719 364.179688 700.386719 371.21875 706.992188 C 378.765625 714.066406 386.425781 721.019531 394.027344 728.035156 C 396.878906 730.664062 399.695312 733.332031 402.738281 735.902344 C 386.738281 707.480469 379.835938 676.847656 380.664062 644.285156 C 384.632812 657.277344 388.605469 670.269531 392.5625 683.273438 C 396.511719 696.257812 400.4375 709.246094 405.09375 722.226562 C 412.996094 696.246094 420.902344 670.257812 428.800781 644.273438 C 429.644531 676.769531 422.789062 707.347656 406.945312 735.917969 C 407.453125 735.488281 407.972656 735.066406 408.460938 734.609375 C 408.976562 734.136719 409.441406 733.605469 409.96875 733.132812 C 417.847656 725.972656 425.496094 718.523438 433.691406 711.738281 C 445.382812 702.070312 447.964844 690.183594 444.125 676.054688 C 441.367188 665.902344 437.195312 656.410156 432.148438 647.246094 C 431.714844 646.453125 431.261719 645.675781 430.84375 644.871094 C 430.769531 644.726562 430.851562 644.503906 430.878906 643.933594 C 440.03125 652.480469 446.402344 662.402344 449.65625 674.265625 C 452.890625 686.066406 452.484375 697.851562 449.816406 709.851562 C 454.066406 704.453125 458.347656 699.0625 462.5625 693.625 C 464.648438 690.929688 466.671875 688.171875 468.636719 685.378906 C 473.929688 677.882812 473.40625 671.167969 467.0625 664.476562 C 459.515625 656.519531 450.195312 651.273438 440.234375 647.027344 C 438.21875 646.171875 436.210938 645.296875 434.367188 643.949219 C 442.210938 646.265625 450.09375 648.480469 457.894531 650.929688 C 463.636719 652.726562 469.386719 654.558594 474.9375 656.863281 C 481.777344 659.695312 487.335938 658.648438 492.789062 653.523438 C 499.597656 647.140625 506.957031 641.347656 514.070312 635.300781 C 514.824219 634.65625 515.574219 634.007812 516.246094 633.070312 C 489.132812 637.269531 461.992188 640.8125 434.550781 641.769531 C 444.878906 639.90625 455.203125 637.953125 465.554688 636.199219 C 479.296875 633.871094 493.074219 631.734375 506.832031 629.445312 C 515.164062 628.058594 522.070312 624.183594 526.375 616.746094 C 532.90625 605.449219 539.148438 593.988281 545.503906 582.59375 C 545.679688 582.28125 545.742188 581.90625 546.121094 580.75 C 509.882812 603.015625 472.875 622.269531 434.675781 639.25 C 444.628906 633.414062 454.515625 627.476562 464.539062 621.765625 C 486.78125 609.089844 508.96875 596.296875 531.433594 584.015625 C 542.839844 577.777344 551.132812 569.027344 555.511719 556.996094 C 559.816406 545.171875 563.214844 533.011719 567.011719 521 C 566.707031 520.867188 566.410156 520.738281 566.105469 520.601562 C 565.738281 520.949219 565.285156 521.234375 565.007812 521.644531 C 547.890625 546.558594 525.40625 565.496094 499.5 580.667969 C 482.433594 590.667969 465.46875 600.84375 448.375 610.796875 C 439.988281 615.683594 436.011719 623.695312 432.558594 632.128906 C 431.273438 635.273438 430.34375 638.5625 429.117188 642.15625 C 424.601562 636.179688 422.277344 629.816406 422.632812 622.476562 C 422.765625 619.683594 423.109375 616.726562 422.378906 614.113281 C 419.984375 605.566406 413.261719 601.824219 405.230469 599.972656 C 400.636719 598.914062 396.308594 599.339844 392.523438 602.695312 C 391.628906 603.484375 389.910156 603.429688 388.550781 603.574219 C 382.699219 604.214844 380.078125 607 380.796875 611.902344 C 389.496094 609.554688 395.519531 614.457031 395.199219 623.644531 C 394.871094 632.894531 388.441406 641.019531 380.371094 642.195312 C 379.195312 638.746094 378.125 635.226562 376.8125 631.796875 C 372.976562 621.753906 367.03125 613.730469 357.277344 608.28125 C 339.65625 598.449219 322.382812 587.992188 305.070312 577.617188 C 281.058594 563.234375 260.609375 544.941406 244.617188 521.847656 C 244.292969 521.382812 243.90625 520.953125 243 520.738281 Z M 397.238281 607.246094 L 397.316406 604.949219 L 403.59375 606.476562 L 403.542969 607.152344 Z M 397.238281 607.246094 " fill-opacity="1" fill-rule="nonzero"/></g><path fill="#000000" d="M 352.3125 781.78125 C 358.75 781.78125 364.546875 782.09375 370.289062 781.679688 C 374.933594 781.351562 378.824219 778.859375 381.894531 775.320312 C 389.570312 766.46875 394.082031 756.03125 396.667969 744.757812 C 398.035156 738.789062 394.113281 730.496094 387.667969 725.046875 C 388.753906 727.644531 389.613281 729.6875 390.46875 731.734375 C 393.054688 737.898438 392.628906 743.632812 389.011719 749.464844 C 380.882812 762.554688 369.464844 771.921875 356.335938 779.503906 C 355.167969 780.179688 353.988281 780.832031 352.3125 781.78125 Z M 352.3125 781.78125 " fill-opacity="1" fill-rule="nonzero"/><path fill="#000000" d="M 456.585938 781.566406 C 453.445312 779.667969 450.25 777.859375 447.171875 775.863281 C 436.527344 768.953125 427.425781 760.527344 420.582031 749.675781 C 416.785156 743.660156 416.394531 737.742188 419.125 731.394531 C 419.941406 729.496094 420.761719 727.59375 421.675781 725.46875 C 415.433594 729.542969 411.417969 739.160156 413.085938 745.988281 C 415.417969 755.527344 419.324219 764.355469 425.105469 772.355469 C 429.871094 778.949219 436.085938 782.394531 444.335938 782.097656 C 448.382812 781.949219 452.445312 782.070312 456.5 782.070312 C 456.527344 781.898438 456.558594 781.730469 456.585938 781.566406 Z M 456.585938 781.566406 " fill-opacity="1" fill-rule="nonzero"/><g clip-path="url(#00f36a7ab9)"><path fill="#000000" d="M 404.886719 807.789062 C 409.949219 800.496094 412.070312 792.824219 410.242188 784.261719 C 408.554688 776.355469 406.871094 768.449219 405.183594 760.539062 C 404.9375 760.507812 404.691406 760.480469 404.445312 760.449219 C 404.085938 761.992188 403.703125 763.539062 403.371094 765.085938 C 401.925781 771.730469 400.429688 778.367188 399.070312 785.027344 C 397.488281 792.78125 399.792969 801.789062 404.886719 807.789062 Z M 404.886719 807.789062 " fill-opacity="1" fill-rule="nonzero"/></g><path fill="#000000" d="M 400.542969 747.859375 C 397.121094 755.511719 393.726562 763.957031 389.628906 772.046875 C 385.492188 780.207031 379.546875 787.148438 372.675781 793.519531 C 381.046875 795.167969 390.085938 790.402344 393.898438 782.300781 C 399.171875 771.097656 401.136719 759.234375 400.542969 747.859375 Z M 400.542969 747.859375 " fill-opacity="1" fill-rule="nonzero"/><path fill="#000000" d="M 409.199219 746.910156 C 408.308594 759.019531 410.308594 770.585938 415.199219 781.585938 C 418.980469 790.097656 426.992188 794.597656 436.984375 793.742188 C 422.9375 780.6875 414.375 764.789062 409.199219 746.910156 Z M 409.199219 746.910156 " fill-opacity="1" fill-rule="nonzero"/><path fill="#000000" d="M 475.152344 741.1875 C 472.011719 739.289062 468.8125 737.480469 465.738281 735.488281 C 455.09375 728.574219 445.992188 720.148438 439.144531 709.296875 C 435.351562 703.285156 434.960938 697.363281 437.691406 691.015625 C 438.507812 689.117188 439.328125 687.214844 440.242188 685.089844 C 434 689.164062 429.984375 698.78125 431.652344 705.609375 C 433.980469 715.148438 437.890625 723.976562 443.667969 731.980469 C 448.4375 738.574219 454.652344 742.019531 462.898438 741.71875 C 466.949219 741.570312 471.011719 741.695312 475.066406 741.695312 C 475.097656 741.523438 475.121094 741.355469 475.152344 741.1875 Z M 475.152344 741.1875 " fill-opacity="1" fill-rule="nonzero"/><path fill="#000000" d="M 427.765625 706.535156 C 426.875 718.644531 428.875 730.210938 433.761719 741.210938 C 437.546875 749.722656 445.554688 754.222656 455.550781 753.371094 C 441.507812 740.3125 432.945312 724.410156 427.765625 706.535156 Z M 427.765625 706.535156 " fill-opacity="1" fill-rule="nonzero"/><path fill="#000000" d="M 336.933594 741.1875 C 340.074219 739.289062 343.269531 737.480469 346.347656 735.488281 C 356.992188 728.574219 366.089844 720.148438 372.9375 709.296875 C 376.734375 703.285156 377.125 697.363281 374.390625 691.015625 C 373.574219 689.117188 372.753906 687.214844 371.84375 685.089844 C 378.085938 689.164062 382.101562 698.78125 380.433594 705.609375 C 378.101562 715.148438 374.195312 723.976562 368.414062 731.980469 C 363.648438 738.574219 357.429688 742.019531 349.183594 741.71875 C 345.136719 741.570312 341.074219 741.695312 337.019531 741.695312 C 336.988281 741.523438 336.960938 741.355469 336.933594 741.1875 Z M 336.933594 741.1875 " fill-opacity="1" fill-rule="nonzero"/><path fill="#000000" d="M 384.324219 706.535156 C 385.210938 718.644531 383.214844 730.210938 378.324219 741.210938 C 374.539062 749.722656 366.53125 754.222656 356.539062 753.371094 C 370.578125 740.3125 379.144531 724.410156 384.324219 706.535156 Z M 384.324219 706.535156 " fill-opacity="1" fill-rule="nonzero"/><path fill="#ffffff" d="M 397.316406 607.152344 C 399.390625 607.152344 401.46875 607.152344 403.550781 607.152344 C 403.5625 606.929688 403.582031 606.703125 403.59375 606.480469 C 401.523438 606.308594 399.453125 606.136719 397.378906 605.960938 C 397.359375 606.359375 397.335938 606.757812 397.316406 607.152344 Z M 397.316406 607.152344 " fill-opacity="1" fill-rule="nonzero"/><g fill="#000000" fill-opacity="1"><g transform="translate(302.049222, 900.722902)"><g><path d="M 45.71875 -7.015625 C 43.90625 -4.421875 41.375 -2.476562 38.125 -1.1875 C 34.882812 0.09375 31.109375 0.734375 26.796875 0.734375 C 22.429688 0.734375 18.554688 -0.285156 15.171875 -2.328125 C 11.796875 -4.378906 9.179688 -7.289062 7.328125 -11.0625 C 5.484375 -14.832031 4.535156 -19.207031 4.484375 -24.1875 L 4.484375 -28.84375 C 4.484375 -36.90625 6.363281 -43.15625 10.125 -47.59375 C 13.882812 -52.03125 19.171875 -54.25 25.984375 -54.25 C 31.566406 -54.25 36.0625 -52.820312 39.46875 -49.96875 C 42.875 -47.113281 44.957031 -43.0625 45.71875 -37.8125 L 38.65625 -37.8125 C 37.332031 -44.894531 33.117188 -48.4375 26.015625 -48.4375 C 21.285156 -48.4375 17.703125 -46.773438 15.265625 -43.453125 C 12.828125 -40.140625 11.597656 -35.332031 11.578125 -29.03125 L 11.578125 -24.65625 C 11.578125 -18.65625 12.945312 -13.882812 15.6875 -10.34375 C 18.4375 -6.800781 22.148438 -5.03125 26.828125 -5.03125 C 29.472656 -5.03125 31.785156 -5.320312 33.765625 -5.90625 C 35.753906 -6.5 37.398438 -7.492188 38.703125 -8.890625 L 38.703125 -20.90625 L 26.3125 -20.90625 L 26.3125 -26.640625 L 45.71875 -26.640625 Z M 45.71875 -7.015625 "/></g></g></g><g fill="#000000" fill-opacity="1"><g transform="translate(353.311252, 900.722902)"><g><path d="M 13.78125 0 L 6.71875 0 L 6.71875 -53.515625 L 13.78125 -53.515625 Z M 13.78125 0 "/></g></g></g><g fill="#000000" fill-opacity="1"><g transform="translate(373.779317, 900.722902)"><g><path d="M 11.5 -5.765625 L 42.109375 -5.765625 L 42.109375 0 L 3.15625 0 L 3.15625 -5.296875 L 32.484375 -47.703125 L 3.640625 -47.703125 L 3.640625 -53.515625 L 40.9375 -53.515625 L 40.9375 -48.328125 Z M 11.5 -5.765625 "/></g></g></g><g fill="#000000" fill-opacity="1"><g transform="translate(418.831109, 900.722902)"><g><path d="M 36.453125 -24.734375 L 13.265625 -24.734375 L 13.265625 -5.765625 L 40.203125 -5.765625 L 40.203125 0 L 6.203125 0 L 6.203125 -53.515625 L 39.84375 -53.515625 L 39.84375 -47.703125 L 13.265625 -47.703125 L 13.265625 -30.5 L 36.453125 -30.5 Z M 36.453125 -24.734375 "/></g></g></g><g fill="#000000" fill-opacity="1"><g transform="translate(461.604589, 900.722902)"><g><path d="M 25.828125 -21.640625 L 13.265625 -21.640625 L 13.265625 0 L 6.171875 0 L 6.171875 -53.515625 L 23.890625 -53.515625 C 29.910156 -53.515625 34.546875 -52.140625 37.796875 -49.390625 C 41.046875 -46.648438 42.671875 -42.65625 42.671875 -37.40625 C 42.671875 -34.082031 41.769531 -31.179688 39.96875 -28.703125 C 38.164062 -26.222656 35.660156 -24.375 32.453125 -23.15625 L 45.015625 -0.4375 L 45.015625 0 L 37.453125 0 Z M 13.265625 -27.421875 L 24.109375 -27.421875 C 27.609375 -27.421875 30.394531 -28.328125 32.46875 -30.140625 C 34.539062 -31.953125 35.578125 -34.375 35.578125 -37.40625 C 35.578125 -40.71875 34.585938 -43.253906 32.609375 -45.015625 C 30.640625 -46.785156 27.796875 -47.679688 24.078125 -47.703125 L 13.265625 -47.703125 Z M 13.265625 -27.421875 "/></g></g></g></svg>